<svg width="48" height="48" viewBox="0 0 48 48" fill="none" xmlns="http://www.w3.org/2000/svg">
<g clip-path="url(#clip0_203_270)">
<path d="M29.794 2C31.7593 1.99989 33.6559 2.72321 35.122 4.032L35.452 4.344L43.652 12.544C45.045 13.9342 45.8767 15.7891 45.988 17.754L46 18.208V29.796C46.0001 31.7613 45.2768 33.6579 43.968 35.124L43.656 35.454L35.456 43.654C34.0668 45.0461 32.2135 45.8777 30.25 45.99L29.796 46.002H18.206C16.2404 46.0017 14.3437 45.2777 12.878 43.968L12.548 43.656L4.348 35.456C2.95545 34.0663 2.1238 32.2122 2.012 30.248L2 29.794V18.206C1.99989 16.2407 2.72321 14.3441 4.032 12.878L4.344 12.548L12.544 4.348C13.9342 2.955 15.7891 2.12332 17.754 2.012L18.208 2H29.794ZM24.02 30L23.766 30.014C23.2799 30.0718 22.8319 30.3059 22.5068 30.6719C22.1818 31.0379 22.0022 31.5105 22.0022 32C22.0022 32.4895 22.1818 32.9621 22.5068 33.3281C22.8319 33.6941 23.2799 33.9282 23.766 33.986L24 34L24.254 33.986C24.7401 33.9282 25.1881 33.6941 25.5132 33.3281C25.8382 32.9621 26.0178 32.4895 26.0178 32C26.0178 31.5105 25.8382 31.0379 25.5132 30.6719C25.1881 30.3059 24.7401 30.0718 24.254 30.014L24.02 30ZM24 14C23.5101 14.0001 23.0373 14.1799 22.6713 14.5054C22.3052 14.8309 22.0713 15.2795 22.014 15.766L22 16V24L22.014 24.234C22.0718 24.7201 22.3059 25.1681 22.6719 25.4932C23.0379 25.8182 23.5105 25.9978 24 25.9978C24.4895 25.9978 24.9621 25.8182 25.3281 25.4932C25.6941 25.1681 25.9282 24.7201 25.986 24.234L26 24V16L25.986 15.766C25.9287 15.2795 25.6948 14.8309 25.3287 14.5054C24.9627 14.1799 24.4899 14.0001 24 14Z" fill="black"/>
</g>
<defs>
<clipPath id="clip0_203_270">
<rect width="48" height="48" fill="white"/>
</clipPath>
</defs>
</svg>
